<svg width="30" height="30" viewBox="0 0 30 30" fill="none" xmlns="http://www.w3.org/2000/svg">
<path d="M29.834 1.8652C29.834 0.90918 29.0518 0.126953 28.0957 0.126953H1.74994C0.889492 0.126953 0.185547 0.830957 0.185547 1.69135V28.211C0.185547 29.0714 0.889551 29.7754 1.74994 29.7754H28.0957C29.0518 29.7754 29.834 28.9932 29.834 28.0371V1.8652Z" fill="#FF473E"/>
<path d="M28.0957 28.5986H1.74994C0.889551 28.5986 0.185547 27.8946 0.185547 27.0342V28.2111C0.185547 29.0715 0.889551 29.7755 1.74994 29.7755H28.0957C29.0518 29.7755 29.834 28.9932 29.834 28.0372V26.8604C29.834 27.8164 29.0518 28.5986 28.0957 28.5986Z" fill="#D32A2A"/>
<path d="M9.25869 11.389L8.685 12.0509C8.54438 12.2132 8.30502 12.2389 8.12877 12.1163C7.55754 11.7188 6.96539 11.5244 6.29133 11.5244C5.4842 11.5244 4.97444 11.8642 4.97444 12.4731C4.97444 13.0962 5.35676 13.3369 6.88606 13.8183C8.74102 14.4131 9.80309 15.1918 9.80309 17.0044C9.80309 18.8311 8.33039 20.1055 5.8807 20.1055C4.40197 20.1055 3.28781 19.6337 2.49164 18.9979C2.30215 18.8466 2.28076 18.5661 2.4433 18.3862L3.076 17.6857C3.22213 17.5239 3.46793 17.4997 3.6419 17.6312C4.26434 18.1015 4.96893 18.3638 5.80992 18.3638C6.77285 18.3638 7.3534 17.9249 7.3534 17.1744C7.3534 16.4522 6.9852 16.1406 5.56916 15.7017C3.36018 15.022 2.56723 14.1158 2.56723 12.6572C2.56723 10.9155 4.06822 9.79688 6.12147 9.79688C7.4359 9.79688 8.40287 10.1444 9.20297 10.7823C9.24743 10.8178 9.28426 10.8619 9.31125 10.912C9.33824 10.9621 9.35483 11.0171 9.36003 11.0738C9.36524 11.1304 9.35894 11.1876 9.34153 11.2417C9.32412 11.2959 9.29594 11.346 9.25869 11.389Z" fill="white"/>
<path d="M19.4604 14.9512C19.4604 18.1656 17.8037 20.1056 15.0283 20.1056C12.267 20.1056 10.6103 18.2222 10.6103 14.9512C10.6103 11.751 12.267 9.79688 15.0283 9.79688C17.8037 9.79688 19.4604 11.6661 19.4604 14.9512ZM13.06 14.9512C13.06 17.4292 13.7538 18.3922 15.0283 18.3922C16.3452 18.3922 17.0107 17.4292 17.0107 14.9512C17.0107 12.4873 16.3452 11.5245 15.0283 11.5245C13.7397 11.5245 13.06 12.4874 13.06 14.9512Z" fill="white"/>
<path d="M27.0866 11.3889L26.5129 12.0509C26.3723 12.2132 26.133 12.2389 25.9567 12.1162C25.3855 11.7188 24.7933 11.5244 24.1193 11.5244C23.3121 11.5244 22.8023 11.8642 22.8023 12.4731C22.8023 13.0962 23.1846 13.3369 24.714 13.8183C26.569 14.4131 27.631 15.1918 27.631 17.0044C27.631 18.8311 26.1583 20.1055 23.7086 20.1055C22.2299 20.1055 21.1158 19.6337 20.3195 18.9979C20.13 18.8466 20.1086 18.5661 20.2712 18.3862L20.9039 17.6857C21.05 17.5239 21.2958 17.4997 21.4697 17.6312C22.0922 18.1015 22.7967 18.3638 23.6377 18.3638C24.6007 18.3638 25.1812 17.9249 25.1812 17.1744C25.1812 16.4522 24.8131 16.1406 23.397 15.7017C21.1881 15.022 20.3951 14.1158 20.3951 12.6572C20.3951 10.9155 21.896 9.79688 23.9493 9.79688C25.2638 9.79688 26.2307 10.1444 27.0308 10.7823C27.2184 10.9318 27.2437 11.2077 27.0866 11.3889Z" fill="white"/>
</svg>
