<svg width="24" height="32" viewBox="0 0 24 32" fill="none" xmlns="http://www.w3.org/2000/svg">
<g clip-path="url(#clip0_116_490)">
<g filter="url(#filter0_f_116_490)">
<ellipse cx="12" cy="29" rx="4" ry="2" fill="black" fill-opacity="0.12"/>
</g>
<mask id="path-2-outside-1_116_490" maskUnits="userSpaceOnUse" x="1" y="1" width="22" height="28" fill="black">
<rect fill="white" x="1" y="1" width="22" height="28"/>
<path fill-rule="evenodd" clip-rule="evenodd" d="M17.9159 20.0632C20.3926 18.243 22 15.3092 22 12C22 6.47715 17.5228 2 12 2C6.47715 2 2 6.47715 2 12C2 15.3092 3.60742 18.243 6.08406 20.0632C7.96608 21.4813 10.619 23.7185 11.2288 27.3195C11.2934 27.701 11.6131 27.997 12 27.997C12.3869 27.997 12.7066 27.701 12.7712 27.3195C13.381 23.7185 16.0339 21.4813 17.9159 20.0632Z"/>
</mask>
<path fill-rule="evenodd" clip-rule="evenodd" d="M17.9159 20.0632C20.3926 18.243 22 15.3092 22 12C22 6.47715 17.5228 2 12 2C6.47715 2 2 6.47715 2 12C2 15.3092 3.60742 18.243 6.08406 20.0632C7.96608 21.4813 10.619 23.7185 11.2288 27.3195C11.2934 27.701 11.6131 27.997 12 27.997C12.3869 27.997 12.7066 27.701 12.7712 27.3195C13.381 23.7185 16.0339 21.4813 17.9159 20.0632Z" fill="#EA352B"/>
<path d="M17.9159 20.0632L17.3237 19.2573L17.3141 19.2645L17.9159 20.0632ZM6.08406 20.0632L6.6859 19.2645L6.67626 19.2574L6.08406 20.0632ZM11.2288 27.3195L10.2428 27.4865H10.2428L11.2288 27.3195ZM12.7712 27.3195L13.7572 27.4865H13.7572L12.7712 27.3195ZM18.5081 20.869C21.2301 18.8685 23 15.6409 23 12H21C21 14.9776 19.555 17.6175 17.3237 19.2574L18.5081 20.869ZM23 12C23 5.92487 18.0751 1 12 1V3C16.9706 3 21 7.02944 21 12H23ZM12 1C5.92487 1 1 5.92487 1 12H3C3 7.02944 7.02944 3 12 3V1ZM1 12C1 15.6409 2.76987 18.8685 5.49185 20.869L6.67626 19.2574C4.44496 17.6175 3 14.9776 3 12H1ZM12.2147 27.1526C11.5345 23.1359 8.58192 20.6933 6.68585 19.2645L5.48226 20.8618C7.35024 22.2694 9.70338 24.3011 10.2428 27.4865L12.2147 27.1526ZM12 26.997C12.0686 26.997 12.1251 27.0246 12.1593 27.0551C12.1912 27.0836 12.2089 27.118 12.2147 27.1526L10.2428 27.4865C10.3809 28.3017 11.0789 28.997 12 28.997V26.997ZM11.7853 27.1526C11.7911 27.118 11.8088 27.0836 11.8407 27.0551C11.8749 27.0246 11.9314 26.997 12 26.997V28.997C12.9211 28.997 13.6191 28.3017 13.7572 27.4865L11.7853 27.1526ZM17.3141 19.2645C15.4181 20.6933 12.4655 23.1359 11.7853 27.1526L13.7572 27.4865C14.2966 24.3011 16.6498 22.2694 18.5177 20.8618L17.3141 19.2645Z" fill="url(#paint0_linear_116_490)" mask="url(#path-2-outside-1_116_490)"/>
</g>
<path d="M6.42569 15.112C7.78569 15.112 8.59369 14.288 8.59369 13.32C8.59369 12.472 8.12169 12.008 7.40969 11.712L6.63369 11.392C6.12969 11.192 5.70569 11.032 5.70569 10.608C5.70569 10.224 6.03369 9.992 6.55369 9.992C7.04169 9.992 7.43369 10.168 7.81769 10.48L8.40969 9.736C7.92969 9.248 7.24169 8.976 6.55369 8.976C5.36169 8.976 4.50569 9.72 4.50569 10.688C4.50569 11.544 5.11369 12.032 5.70569 12.272L6.49769 12.608C7.02569 12.832 7.38569 12.976 7.38569 13.416C7.38569 13.824 7.06569 14.088 6.44969 14.088C5.92969 14.088 5.36169 13.832 4.94569 13.44L4.26569 14.256C4.84169 14.808 5.62569 15.112 6.42569 15.112ZM12.0019 15.112C13.5699 15.112 14.6419 13.944 14.6419 12.016C14.6419 10.096 13.5699 8.976 12.0019 8.976C10.4259 8.976 9.35388 10.088 9.35388 12.016C9.35388 13.944 10.4259 15.112 12.0019 15.112ZM12.0019 14.088C11.1139 14.088 10.5619 13.28 10.5619 12.016C10.5619 10.752 11.1139 9.992 12.0019 9.992C12.8819 9.992 13.4419 10.752 13.4419 12.016C13.4419 13.28 12.8819 14.088 12.0019 14.088ZM17.5741 15.112C18.9341 15.112 19.7421 14.288 19.7421 13.32C19.7421 12.472 19.2701 12.008 18.5581 11.712L17.7821 11.392C17.2781 11.192 16.8541 11.032 16.8541 10.608C16.8541 10.224 17.1821 9.992 17.7021 9.992C18.1901 9.992 18.5821 10.168 18.9661 10.48L19.5581 9.736C19.0781 9.248 18.3901 8.976 17.7021 8.976C16.5101 8.976 15.6541 9.72 15.6541 10.688C15.6541 11.544 16.2621 12.032 16.8541 12.272L17.6461 12.608C18.1741 12.832 18.5341 12.976 18.5341 13.416C18.5341 13.824 18.2141 14.088 17.5981 14.088C17.0781 14.088 16.5101 13.832 16.0941 13.44L15.4141 14.256C15.9901 14.808 16.7741 15.112 17.5741 15.112Z" fill="white"/>
<defs>
<filter id="filter0_f_116_490" x="6" y="25" width="12" height="8" filterUnits="userSpaceOnUse" color-interpolation-filters="sRGB">
<feFlood flood-opacity="0" result="BackgroundImageFix"/>
<feBlend mode="normal" in="SourceGraphic" in2="BackgroundImageFix" result="shape"/>
<feGaussianBlur stdDeviation="1" result="effect1_foregroundBlur_116_490"/>
</filter>
<linearGradient id="paint0_linear_116_490" x1="12" y1="2" x2="12" y2="27.9969" gradientUnits="userSpaceOnUse">
<stop stop-color="white"/>
<stop offset="1" stop-color="white" stop-opacity="0.35"/>
</linearGradient>
<clipPath id="clip0_116_490">
<rect width="24" height="32" fill="white"/>
</clipPath>
</defs>
</svg>
