<svg width="101" height="12" viewBox="0 0 101 12" fill="none" xmlns="http://www.w3.org/2000/svg">
<g clip-path="url(#clip0_1291_274)">
<path d="M5.41061 0.795343C6.74258 0.820958 7.41496 1.71747 7.42777 3.48489C7.40215 5.25231 6.70416 6.14242 5.33377 6.15523H4.31558V0.795343H5.41061ZM6.23668 11.8033C6.15984 11.4831 5.98694 11.3102 5.71798 11.2846H4.31558V6.73156H5.89088C8.10656 6.73156 9.49616 6.03356 10.0596 4.63755C10.2262 4.24053 10.3094 3.79867 10.3094 3.312C10.3094 2.1081 9.77152 1.2436 8.69569 0.718499C8.08094 0.42393 7.35093 0.276644 6.50564 0.276644H0.0891418V0.795343H1.62602V11.2846H0.0891418V11.8033H6.23668ZM17.3084 0.0845337C15.605 0.0845337 14.1642 0.622443 12.9859 1.69826C11.7692 2.81251 11.1609 4.24693 11.1609 6.00154C11.1609 8.0123 11.8845 9.58121 13.3317 10.7082C14.4459 11.5663 15.7523 11.9954 17.2508 11.9954C18.9542 11.9954 20.3886 11.4574 21.5541 10.3817C22.7451 9.25461 23.3407 7.82019 23.3407 6.07839C23.3407 3.96517 22.5915 2.35785 21.093 1.25641C20.0172 0.475159 18.7556 0.0845337 17.3084 0.0845337ZM17.3084 11.4383C16.0021 11.4383 15.1183 10.8427 14.6573 9.65164C14.3371 8.80635 14.177 7.61527 14.177 6.07839C14.177 3.1455 14.811 1.41009 16.0789 0.872188C16.4247 0.718499 16.8153 0.641655 17.2508 0.641655C18.698 0.641655 19.6265 1.45493 20.0364 3.08146C20.2285 3.86271 20.3246 4.82967 20.3246 5.98233C20.3246 8.7103 19.8122 10.4009 18.7877 11.0541C18.3906 11.3102 17.8975 11.4383 17.3084 11.4383ZM30.8199 0.0845337C29.1165 0.0845337 27.6757 0.622443 26.4975 1.69826C25.2808 2.81251 24.6724 4.24693 24.6724 6.00154C24.6724 8.0123 25.396 9.58121 26.8432 10.7082C27.9574 11.5663 29.2639 11.9954 30.7623 11.9954C32.4657 11.9954 33.9001 11.4574 35.0656 10.3817C36.2566 9.25461 36.8522 7.82019 36.8522 6.07839C36.8522 3.96517 36.103 2.35785 34.6045 1.25641C33.5287 0.475159 32.2671 0.0845337 30.8199 0.0845337ZM30.8199 11.4383C29.5136 11.4383 28.6298 10.8427 28.1688 9.65164C27.8487 8.80635 27.6885 7.61527 27.6885 6.07839C27.6885 3.1455 28.3225 1.41009 29.5904 0.872188C29.9363 0.718499 30.3269 0.641655 30.7623 0.641655C32.2096 0.641655 33.1381 1.45493 33.5479 3.08146C33.74 3.86271 33.8361 4.82967 33.8361 5.98233C33.8361 8.7103 33.3238 10.4009 32.2992 11.0541C31.9022 11.3102 31.4091 11.4383 30.8199 11.4383ZM37.8957 0.276644V0.795343H39.4326V11.2846H37.8957V11.8033H43.6207C45.4009 11.8033 46.8673 11.2653 48.02 10.1896C49.147 9.12655 49.7106 7.75616 49.7106 6.07839C49.7106 3.93956 48.9037 2.34503 47.2899 1.29483C46.227 0.61604 44.9847 0.276644 43.5631 0.276644H37.8957ZM43.6207 0.795343C44.9654 0.795343 45.8619 1.45493 46.3102 2.77408C46.5663 3.58094 46.6945 4.65036 46.6945 5.98233C46.6945 8.64626 46.1629 10.292 45.0999 10.9196C44.6901 11.163 44.1842 11.2846 43.5822 11.2846H42.1222V0.795343H43.6207ZM62.7994 11.8033C62.7994 11.4959 62.7162 11.3294 62.5497 11.3038C62.4857 11.291 62.4152 11.2846 62.3383 11.2846H61.762L57.2282 0.276644H55.8066L51.5994 11.2846H50.3699V11.8033H53.9047C53.9047 11.4959 53.8215 11.3294 53.655 11.3038C53.5909 11.291 53.5205 11.2846 53.4437 11.2846H52.3678L53.7511 7.59606H57.574L59.0148 11.2846H57.6509V11.8033H62.7994ZM57.3435 7.01973H53.9815L55.6337 2.60118L57.3435 7.01973ZM63.1706 0.276644V0.795343H64.7075V11.2846H63.1706V11.8033H68.8955C70.6757 11.8033 72.1421 11.2653 73.2948 10.1896C74.4218 9.12655 74.9854 7.75616 74.9854 6.07839C74.9854 3.93956 74.1785 2.34503 72.5648 1.29483C71.5018 0.61604 70.2595 0.276644 68.8379 0.276644H63.1706ZM68.8955 0.795343C70.2402 0.795343 71.1368 1.45493 71.585 2.77408C71.8411 3.58094 71.9693 4.65036 71.9693 5.98233C71.9693 8.64626 71.4378 10.292 70.3748 10.9196C69.9649 11.163 69.4591 11.2846 68.8571 11.2846H67.397V0.795343H68.8955ZM88.0743 11.8033C88.0743 11.4959 87.9911 11.3294 87.8246 11.3038C87.7605 11.291 87.6901 11.2846 87.6132 11.2846H87.0369L82.5031 0.276644H81.0814L76.8743 11.2846H75.6448V11.8033H79.1795C79.1795 11.4959 79.0963 11.3294 78.9298 11.3038C78.8658 11.291 78.7953 11.2846 78.7185 11.2846H77.6427L79.0259 7.59606H82.8489L84.2897 11.2846H82.9257V11.8033H88.0743ZM82.6183 7.01973H79.2564L80.9085 2.60118L82.6183 7.01973ZM94.2088 11.8033C94.1319 11.4831 93.959 11.3102 93.6901 11.2846H92.6719V6.67393L93.2866 6.11681L96.956 11.8225L100.625 11.8033C100.548 11.4831 100.375 11.3102 100.107 11.2846H99.9334L95.2462 4.33018L98.1662 1.69826C98.7423 1.17316 99.1584 0.878591 99.4151 0.814554C99.5046 0.801747 99.5882 0.795343 99.6649 0.795343C99.9718 0.795343 100.139 0.686481 100.165 0.468755C100.177 0.404718 100.183 0.340681 100.183 0.276644H96.6293V0.795343H98.1662L92.6719 5.7518V0.795343H94.2088V0.276644H88.4454V0.795343H89.9823V11.2846H88.4454V11.8033H94.2088Z" fill="#BC955C"/>
</g>
<defs>
<clipPath id="clip0_1291_274">
<rect width="100.721" height="12" fill="white"/>
</clipPath>
</defs>
</svg>
